<svg
  xmlns="http://www.w3.org/2000/svg"
  viewBox="0 0 256 256"
  width="256"
  height="256"
>
  <!-- Фон -->
  <rect
    x="0"
    y="0"
    width="256"
    height="256"
    rx="40"
    ry="40"
    fill="#6B3A12"
  />

  <!-- Буква B -->
  <path
    d="M78 48
       H142
       C178 48 196 66 196 94
       C196 114 184 126 166 132
       C188 138 202 156 202 182
       C202 216 176 232 138 232
       H78
       Z

       M104 72
       V120
       H136
       C154 120 162 112 162 96
       C162 80 154 72 136 72
       Z

       M104 144
       V208
       H136
       C158 208 168 196 168 178
       C168 160 158 144 136 144
       Z"
    fill="#FFFFFF"
  />
</svg>
